<svg id="visual" viewBox="0 0 900 600" width="900" height="600" xmlns="http://www.w3.org/2000/svg" xmlns:xlink="http://www.w3.org/1999/xlink" version="1.1"><g stroke-width="1" stroke-linejoin="bevel"><path d="M485 281L474 383L525.5 303Z" fill="#006e56" stroke="#006e56"></path><path d="M574.5 214L416 210L485 281Z" fill="#006e56" stroke="#006e56"></path><path d="M485 281L312.5 311L474 383Z" fill="#01352a" stroke="#01352a"></path><path d="M474 383L596.5 417L525.5 303Z" fill="#01261e" stroke="#01261e"></path><path d="M648 263L574.5 214L525.5 303Z" fill="#006e56" stroke="#006e56"></path><path d="M525.5 303L574.5 214L485 281Z" fill="#005d49" stroke="#005d49"></path><path d="M416 210L312.5 311L485 281Z" fill="#001f18" stroke="#001f18"></path><path d="M354.5 511L478 508L474 383Z" fill="#004c3c" stroke="#004c3c"></path><path d="M474 383L478 508L596.5 417Z" fill="#012d24" stroke="#012d24"></path><path d="M596.5 417L648 263L525.5 303Z" fill="#001f18" stroke="#001f18"></path><path d="M312.5 311L310.5 402L474 383Z" fill="#004c3c" stroke="#004c3c"></path><path d="M478 508L581.5 500L596.5 417Z" fill="#001f18" stroke="#001f18"></path><path d="M690 365L669 236L648 263Z" fill="#006550" stroke="#006550"></path><path d="M690 365L648 263L596.5 417Z" fill="#01261e" stroke="#01261e"></path><path d="M648 263L669 236L574.5 214Z" fill="#004c3c" stroke="#004c3c"></path><path d="M706 537L690 365L596.5 417Z" fill="#01261e" stroke="#01261e"></path><path d="M310.5 402L354.5 511L474 383Z" fill="#013c30" stroke="#013c30"></path><path d="M310.5 182L255 318L312.5 311Z" fill="#01352a" stroke="#01352a"></path><path d="M312.5 311L255 318L310.5 402Z" fill="#006550" stroke="#006550"></path><path d="M310.5 402L249 463L354.5 511Z" fill="#001f18" stroke="#001f18"></path><path d="M416 210L310.5 182L312.5 311Z" fill="#013c30" stroke="#013c30"></path><path d="M328.5 86L310.5 182L416 210Z" fill="#01352a" stroke="#01352a"></path><path d="M599.5 96L455 80L574.5 214Z" fill="#001f18" stroke="#001f18"></path><path d="M574.5 214L455 80L416 210Z" fill="#004c3c" stroke="#004c3c"></path><path d="M669 236L599.5 96L574.5 214Z" fill="#006e56" stroke="#006e56"></path><path d="M215 378L249 463L310.5 402Z" fill="#012d24" stroke="#012d24"></path><path d="M354.5 600L464 600L354.5 511Z" fill="#005d49" stroke="#005d49"></path><path d="M354.5 511L464 600L478 508Z" fill="#005443" stroke="#005443"></path><path d="M478 508L598.5 600L581.5 500Z" fill="#005d49" stroke="#005d49"></path><path d="M255 318L215 378L310.5 402Z" fill="#004436" stroke="#004436"></path><path d="M121.5 372L215 378L255 318Z" fill="#005443" stroke="#005443"></path><path d="M328.5 86L261 172L310.5 182Z" fill="#005d49" stroke="#005d49"></path><path d="M310.5 182L261 172L255 318Z" fill="#005443" stroke="#005443"></path><path d="M455 80L328.5 86L416 210Z" fill="#001f18" stroke="#001f18"></path><path d="M464 600L598.5 600L478 508Z" fill="#004c3c" stroke="#004c3c"></path><path d="M581.5 500L706 537L596.5 417Z" fill="#006550" stroke="#006550"></path><path d="M202 600L354.5 600L354.5 511Z" fill="#004436" stroke="#004436"></path><path d="M598.5 600L706 537L581.5 500Z" fill="#004436" stroke="#004436"></path><path d="M816.5 286L765.5 210L669 236Z" fill="#005d49" stroke="#005d49"></path><path d="M669 236L673 68L599.5 96Z" fill="#004436" stroke="#004436"></path><path d="M816.5 286L669 236L690 365Z" fill="#013c30" stroke="#013c30"></path><path d="M765.5 210L673 68L669 236Z" fill="#01261e" stroke="#01261e"></path><path d="M565.5 0L448 0L455 80Z" fill="#006e56" stroke="#006e56"></path><path d="M455 80L344.5 0L328.5 86Z" fill="#004c3c" stroke="#004c3c"></path><path d="M706 537L774.5 489L690 365Z" fill="#012d24" stroke="#012d24"></path><path d="M598.5 600L683 600L706 537Z" fill="#001f18" stroke="#001f18"></path><path d="M706 537L760.5 600L774.5 489Z" fill="#01261e" stroke="#01261e"></path><path d="M565.5 0L455 80L599.5 96Z" fill="#013c30" stroke="#013c30"></path><path d="M817.5 389L816.5 286L690 365Z" fill="#004c3c" stroke="#004c3c"></path><path d="M766.5 63L681 0L673 68Z" fill="#004c3c" stroke="#004c3c"></path><path d="M774.5 489L817.5 389L690 365Z" fill="#012d24" stroke="#012d24"></path><path d="M673 68L565.5 0L599.5 96Z" fill="#012d24" stroke="#012d24"></path><path d="M231 0L232 77L328.5 86Z" fill="#004436" stroke="#004436"></path><path d="M328.5 86L232 77L261 172Z" fill="#012d24" stroke="#012d24"></path><path d="M75.5 288L121.5 372L255 318Z" fill="#012d24" stroke="#012d24"></path><path d="M448 0L344.5 0L455 80Z" fill="#01261e" stroke="#01261e"></path><path d="M215 378L131.5 518L249 463Z" fill="#005443" stroke="#005443"></path><path d="M249 463L202 600L354.5 511Z" fill="#01352a" stroke="#01352a"></path><path d="M75.5 288L255 318L93.5 188Z" fill="#013c30" stroke="#013c30"></path><path d="M683 600L760.5 600L706 537Z" fill="#005d49" stroke="#005d49"></path><path d="M774.5 489L900 436L817.5 389Z" fill="#006550" stroke="#006550"></path><path d="M766.5 63L673 68L765.5 210Z" fill="#004436" stroke="#004436"></path><path d="M673 68L681 0L565.5 0Z" fill="#004c3c" stroke="#004c3c"></path><path d="M131.5 518L202 600L249 463Z" fill="#004c3c" stroke="#004c3c"></path><path d="M900 131L766.5 63L765.5 210Z" fill="#004436" stroke="#004436"></path><path d="M121.5 372L131.5 518L215 378Z" fill="#005d49" stroke="#005d49"></path><path d="M93.5 188L255 318L261 172Z" fill="#012d24" stroke="#012d24"></path><path d="M121.5 372L0 398L131.5 518Z" fill="#006550" stroke="#006550"></path><path d="M232 77L93.5 188L261 172Z" fill="#004c3c" stroke="#004c3c"></path><path d="M344.5 0L231 0L328.5 86Z" fill="#001f18" stroke="#001f18"></path><path d="M232 77L84.5 68L93.5 188Z" fill="#001f18" stroke="#001f18"></path><path d="M817.5 389L900 290L816.5 286Z" fill="#013c30" stroke="#013c30"></path><path d="M816.5 286L900 196L765.5 210Z" fill="#006550" stroke="#006550"></path><path d="M900 436L900 290L817.5 389Z" fill="#013c30" stroke="#013c30"></path><path d="M900 527L900 436L774.5 489Z" fill="#004c3c" stroke="#004c3c"></path><path d="M766.5 63L762.5 0L681 0Z" fill="#005d49" stroke="#005d49"></path><path d="M900 0L762.5 0L766.5 63Z" fill="#006e56" stroke="#006e56"></path><path d="M900 290L900 196L816.5 286Z" fill="#013c30" stroke="#013c30"></path><path d="M760.5 600L900 527L774.5 489Z" fill="#005443" stroke="#005443"></path><path d="M900 196L900 131L765.5 210Z" fill="#006e56" stroke="#006e56"></path><path d="M0 534L105.5 600L131.5 518Z" fill="#01352a" stroke="#01352a"></path><path d="M131.5 518L105.5 600L202 600Z" fill="#006e56" stroke="#006e56"></path><path d="M0 203L0 307L75.5 288Z" fill="#004c3c" stroke="#004c3c"></path><path d="M121.5 0L84.5 68L232 77Z" fill="#013c30" stroke="#013c30"></path><path d="M0 203L75.5 288L93.5 188Z" fill="#004436" stroke="#004436"></path><path d="M75.5 288L0 398L121.5 372Z" fill="#013c30" stroke="#013c30"></path><path d="M0 307L0 398L75.5 288Z" fill="#001f18" stroke="#001f18"></path><path d="M231 0L121.5 0L232 77Z" fill="#012d24" stroke="#012d24"></path><path d="M760.5 600L900 600L900 527Z" fill="#013c30" stroke="#013c30"></path><path d="M0 129L93.5 188L84.5 68Z" fill="#004c3c" stroke="#004c3c"></path><path d="M0 129L0 203L93.5 188Z" fill="#004c3c" stroke="#004c3c"></path><path d="M0 398L0 534L131.5 518Z" fill="#001f18" stroke="#001f18"></path><path d="M0 0L0 129L84.5 68Z" fill="#01261e" stroke="#01261e"></path><path d="M900 131L900 0L766.5 63Z" fill="#006e56" stroke="#006e56"></path><path d="M0 534L0 600L105.5 600Z" fill="#004436" stroke="#004436"></path><path d="M121.5 0L0 0L84.5 68Z" fill="#001f18" stroke="#001f18"></path></g></svg>